<svg width="734" height="90" viewBox="0 0 734 90" fill="none" xmlns="http://www.w3.org/2000/svg">
<path opacity="0.05" d="M247.931 89.9986L253.314 72.2986H297.359C299.139 72.2973 300.845 71.5921 302.107 70.3368C303.368 69.0815 304.082 67.3782 304.092 65.5986V60.3646C304.098 59.4803 303.928 58.6035 303.591 57.7857C303.255 56.9679 302.759 56.2253 302.132 55.6015C301.505 54.9777 300.76 54.4851 299.94 54.1525C299.121 53.82 298.243 53.6541 297.359 53.6646H272.172C265.763 53.6602 259.616 51.1197 255.074 46.5979C250.531 42.0762 247.963 35.9407 247.93 29.5316V24.7026H265.706V29.1156C265.716 30.8964 266.43 32.6008 267.692 33.8571C268.955 35.1133 270.662 35.8195 272.443 35.8216H297.757C304.167 35.825 310.314 38.3651 314.857 42.8871C319.399 47.409 321.967 53.5451 322 59.9546V65.8656C321.966 72.2748 319.398 78.4103 314.856 82.932C310.313 87.4537 304.166 89.9942 297.757 89.9986H247.931ZM189.531 89.9986C183.121 89.9942 176.974 87.4533 172.431 82.9309C167.889 78.4086 165.321 72.2723 165.288 65.8626V24.7026H183.066V65.5976C183.098 67.3703 183.819 69.0609 185.076 70.3114C186.333 71.5619 188.027 72.2743 189.8 72.2976H214.718C216.498 72.2966 218.204 71.5914 219.466 70.336C220.727 69.0807 221.44 67.3772 221.45 65.5976V53.6606H203.671L198.284 35.8306H239.362V65.8656C239.328 72.2746 236.76 78.41 232.218 82.9316C227.676 87.4533 221.529 89.994 215.12 89.9986H189.531ZM106.887 89.9986C100.477 89.9942 94.3291 87.4534 89.7862 82.9311C85.2433 78.4088 82.6746 72.2726 82.641 65.8626V24.7026H100.418V65.5976C100.451 67.3703 101.172 69.0607 102.428 70.3111C103.685 71.5616 105.379 72.274 107.152 72.2976H132.065C133.845 72.2963 135.551 71.5911 136.813 70.3358C138.074 69.0805 138.788 67.3772 138.798 65.5976V53.6606H121.021L115.633 35.8306H156.72V65.8656C156.687 72.2749 154.118 78.4105 149.576 82.9323C145.034 87.4541 138.886 89.9945 132.477 89.9986H106.887ZM24.244 89.9986C17.834 89.9945 11.6862 87.4537 7.14361 82.9313C2.60098 78.4089 0.0327618 72.2725 0 65.8626L0 24.7026H17.776V65.5976C17.8093 67.3705 18.531 69.0609 19.7883 70.3113C21.0456 71.5617 22.7399 72.274 24.513 72.2976H49.43C51.2094 72.2963 52.916 71.591 54.1772 70.3357C55.4383 69.0804 56.1515 67.377 56.161 65.5976V53.6606H38.386L33 35.8306H74.076V65.8656C74.0432 72.2761 71.4742 78.4129 66.9304 82.935C62.3866 87.457 56.2375 89.9966 49.827 89.9986H24.244ZM0.949 17.8486C2.34516 12.7421 5.3759 8.23368 9.5775 5.01309C13.7791 1.7925 18.9201 0.0371526 24.214 0.015625L319.785 0.015625L314.4 17.8486H0.949Z" fill="#8F98A7"/>
<g opacity="0.05">
<path d="M544.943 0.0117188H521.023V90.0017H544.943V0.0117188Z" fill="#8F98A7"/>
<path d="M648.898 0.00690651V18.7549H678.993V89.9999H702.906V18.7519H733.006V0.00390625L648.898 0.00690651Z" fill="#8F98A7"/>
<path d="M615.564 35.631H595.564C590.258 35.631 585.951 33.437 585.951 27.191C585.951 20.945 590.257 18.748 595.564 18.748H638.564V0H592.73C575.623 0 561.75 9.867 561.75 27.184C561.75 44.501 575.62 54.362 592.73 54.362H613.301C618.607 54.362 622.91 56.556 622.91 62.805C622.91 69.054 618.61 71.242 613.301 71.242H565.073V89.985H615.564C632.671 89.985 646.54 80.137 646.54 62.817C646.54 45.497 632.674 35.617 615.564 35.617" fill="#8F98A7"/>
<path d="M448.19 0.0078125L414.358 80.9908L382.095 45.0128L422.427 0.0178127H395.122L356.889 42.7268V0.0078125H332.969V89.9978H356.889V47.2788L395.113 89.9978H434.919L462.319 22.1338L482.212 72.0338H450.585L458.092 90.0018H514.018L476.413 0.0118122L448.19 0.0078125Z" fill="#8F98A7"/>
</g>
</svg>
